<svg width="24" height="24" viewBox="0 0 24 24" fill="none" xmlns="http://www.w3.org/2000/svg">
<path d="M16.44 3.10205C14.63 3.10205 13.01 3.98205 12 5.33205C11.4841 4.64086 10.8143 4.07944 10.0435 3.69235C9.27281 3.30525 8.42247 3.10314 7.56 3.10205C4.49 3.10205 2 5.60205 2 8.69205C2 9.88205 2.19 10.9821 2.52 12.0021C4.1 17.0021 8.97 19.9921 11.38 20.8121C11.72 20.9321 12.28 20.9321 12.62 20.8121C15.03 19.9921 19.9 17.0021 21.48 12.0021C21.81 10.9821 22 9.88205 22 8.69205C22 5.60205 19.51 3.10205 16.44 3.10205Z" fill="white"/>
</svg>
